<?xml version="1.0" encoding="UTF-8" standalone="no"?>
<!-- Created with Inkscape (http://www.inkscape.org/) -->

<svg
   xmlns:dc="http://purl.org/dc/elements/1.1/"
   xmlns:cc="http://creativecommons.org/ns#"
   xmlns:rdf="http://www.w3.org/1999/02/22-rdf-syntax-ns#"
   xmlns:svg="http://www.w3.org/2000/svg"
   xmlns="http://www.w3.org/2000/svg"
   xmlns:sodipodi="http://sodipodi.sourceforge.net/DTD/sodipodi-0.dtd"
   xmlns:inkscape="http://www.inkscape.org/namespaces/inkscape"
   width="82.123634mm"
   height="78.302254mm"
   viewBox="0 0 82.123634 78.302254"
   version="1.1"
   id="svg8"
   inkscape:version="0.92.4 (5da689c313, 2019-01-14)"
   sodipodi:docname="Tick.svg">
  <defs
     id="defs2" />
  <sodipodi:namedview
     id="base"
     pagecolor="#ffffff"
     bordercolor="#666666"
     borderopacity="1.0"
     inkscape:pageopacity="0.0"
     inkscape:pageshadow="2"
     inkscape:zoom="1.4"
     inkscape:cx="201.11579"
     inkscape:cy="152.73289"
     inkscape:document-units="mm"
     inkscape:current-layer="layer1"
     showgrid="false"
     fit-margin-top="0"
     fit-margin-left="0"
     fit-margin-right="0"
     fit-margin-bottom="0"
     inkscape:window-width="1920"
     inkscape:window-height="1057"
     inkscape:window-x="-8"
     inkscape:window-y="-8"
     inkscape:window-maximized="1" />
  <metadata
     id="metadata5">
    <rdf:RDF>
      <cc:Work
         rdf:about="">
        <dc:format>image/svg+xml</dc:format>
        <dc:type
           rdf:resource="http://purl.org/dc/dcmitype/StillImage" />
        <dc:title></dc:title>
      </cc:Work>
    </rdf:RDF>
  </metadata>
  <g
     inkscape:label="Layer 1"
     inkscape:groupmode="layer"
     id="layer1"
     transform="translate(-54.943464,-125.88549)">
    <path
       style="opacity:1;fill:#000000;fill-opacity:1;stroke:#a81818;stroke-width:0.699;stroke-linejoin:round;stroke-miterlimit:4;stroke-dasharray:none;stroke-dashoffset:0;stroke-opacity:0"
       d="m 123.52808,126.23711 c -1.49954,0.0453 -2.94758,0.8129 -3.81217,2.18229 L 87.74267,179.06024 67.748542,166.43672 c -2.191028,-1.38334 -5.068467,-0.73324 -6.451804,1.45779 l -5.279781,8.36176 c -1.383337,2.19103 -0.732717,5.06899 1.458309,6.45232 l 23.948926,15.12053 8.367964,5.2834 h 5.16e-4 c 0.13694,0.0865 0.276294,0.16495 0.418063,0.23564 0.141772,0.0707 0.285446,0.13346 0.430982,0.18862 2.037612,0.77259 4.39225,0.0347 5.602759,-1.88257 l 5.279264,-8.36177 34.46973,-54.59563 c 1.38334,-2.19103 0.73323,-5.06846 -1.45779,-6.4518 l -8.36797,-5.2834 c -0.82163,-0.51875 -1.73991,-0.75171 -2.63963,-0.7245 z"
       id="rect815"
       inkscape:connector-curvature="0" />
  </g>
</svg>
