<?xml version="1.0" encoding="UTF-8" standalone="no"?>
<!-- Created with Inkscape (http://www.inkscape.org/) -->

<svg
   xmlns:dc="http://purl.org/dc/elements/1.1/"
   xmlns:cc="http://creativecommons.org/ns#"
   xmlns:rdf="http://www.w3.org/1999/02/22-rdf-syntax-ns#"
   xmlns:svg="http://www.w3.org/2000/svg"
   xmlns="http://www.w3.org/2000/svg"
   xmlns:sodipodi="http://sodipodi.sourceforge.net/DTD/sodipodi-0.dtd"
   xmlns:inkscape="http://www.inkscape.org/namespaces/inkscape"
   id="svg8"
   version="1.1"
   viewBox="0 0 114.25713 114.26163"
   height="114.26163mm"
   width="114.25713mm"
   inkscape:version="0.92.4 (5da689c313, 2019-01-14)"
   sodipodi:docname="QuestionMark2.svg"
   inkscape:export-filename="D:\Documents\Programming\Html\Server2\QuestionMark2.png"
   inkscape:export-xdpi="261.79999"
   inkscape:export-ydpi="261.79999">
  <defs
     id="defs2">
    <clipPath
       clipPathUnits="userSpaceOnUse"
       id="clipPath1212">
      <g
         transform="translate(-448.57142,-8.5714289)"
         id="g1216">
        <path
           inkscape:connector-curvature="0"
           style="fill:#ee7d39"
           d="M 215.936,0 C 96.722,0 0.008,96.592 0.008,215.814 c 0,119.336 96.714,216.041 215.927,216.041 119.279,0 215.911,-96.706 215.911,-216.041 C 431.847,96.592 335.214,0 215.936,0 Z m 15.387,335.962 c -5.015,4.463 -10.827,6.706 -17.411,6.706 -6.812,0 -12.754,-2.203 -17.826,-6.617 -5.08,-4.406 -7.625,-10.575 -7.625,-18.501 0,-7.031 2.463,-12.949 7.373,-17.745 4.91,-4.796 10.933,-7.194 18.078,-7.194 7.031,0 12.949,2.398 17.753,7.194 4.796,4.796 7.202,10.713 7.202,17.745 -0.009,7.812 -2.521,13.95 -7.544,18.412 z m 62.533,-155.028 c -3.853,7.145 -8.429,13.306 -13.737,18.501 -5.292,5.194 -14.81,13.924 -28.548,26.198 -3.788,3.463 -6.836,6.503 -9.12,9.12 -2.284,2.626 -3.991,5.023 -5.105,7.202 -1.122,2.178 -1.983,4.357 -2.593,6.535 -0.61,2.17 -1.528,5.999 -2.772,11.469 -2.113,11.608 -8.754,17.411 -19.915,17.411 -5.804,0 -10.681,-1.894 -14.656,-5.69 -3.959,-3.796 -5.934,-9.429 -5.934,-16.907 0,-9.372 1.455,-17.493 4.357,-24.361 2.886,-6.869 6.747,-12.892 11.543,-18.086 4.804,-5.194 11.274,-11.356 19.427,-18.501 7.145,-6.251 12.307,-10.965 15.485,-14.144 3.186,-3.186 5.861,-6.73 8.031,-10.632 2.187,-3.91 3.26,-8.145 3.26,-12.721 0,-8.933 -3.308,-16.46 -9.957,-22.597 -6.641,-6.137 -15.209,-9.21 -25.703,-9.21 -12.282,0 -21.321,3.097 -27.125,9.291 -5.804,6.194 -10.705,15.314 -14.729,27.369 -3.804,12.616 -11.006,18.923 -21.598,18.923 -6.251,0 -11.526,-2.203 -15.826,-6.609 -4.292,-4.406 -6.438,-9.177 -6.438,-14.314 0,-10.6 3.406,-21.346 10.21,-32.23 6.812,-10.884 16.745,-19.899 29.807,-27.036 13.054,-7.145 28.296,-10.722 45.699,-10.722 16.184,0 30.466,2.991 42.854,8.966 12.388,5.966 21.963,14.087 28.718,24.361 6.747,10.266 10.128,21.427 10.128,33.482 0.016,9.471 -1.91,17.787 -5.763,24.932 z"
           id="path1214" />
      </g>
    </clipPath>
  </defs>
  <sodipodi:namedview
     id="base"
     pagecolor="#ffffff"
     bordercolor="#666666"
     borderopacity="1.0"
     inkscape:pageopacity="0.0"
     inkscape:pageshadow="2"
     inkscape:zoom="1.4"
     inkscape:cx="318.85604"
     inkscape:cy="220.02141"
     inkscape:document-units="mm"
     inkscape:current-layer="layer1"
     showgrid="false"
     inkscape:pagecheckerboard="true"
     inkscape:window-width="1920"
     inkscape:window-height="1057"
     inkscape:window-x="-8"
     inkscape:window-y="-8"
     inkscape:window-maximized="1"
     fit-margin-top="0"
     fit-margin-left="0"
     fit-margin-right="0"
     fit-margin-bottom="0" />
  <metadata
     id="metadata5">
    <rdf:RDF>
      <cc:Work
         rdf:about="">
        <dc:format>image/svg+xml</dc:format>
        <dc:type
           rdf:resource="http://purl.org/dc/dcmitype/StillImage" />
        <dc:title />
      </cc:Work>
    </rdf:RDF>
  </metadata>
  <g
     inkscape:label="Layer 1"
     inkscape:groupmode="layer"
     id="layer1"
     transform="translate(-44.547026,-96.616208)">
    <g
       id="g817"
       transform="matrix(0.26458333,0,0,0.26458333,44.544909,96.616208)">
      <path
         id="path815"
         d="M 215.936,0 C 96.722,0 0.008,96.592 0.008,215.814 c 0,119.336 96.714,216.041 215.927,216.041 119.279,0 215.911,-96.706 215.911,-216.041 C 431.847,96.592 335.214,0 215.936,0 Z m 15.387,335.962 c -5.015,4.463 -10.827,6.706 -17.411,6.706 -6.812,0 -12.754,-2.203 -17.826,-6.617 -5.08,-4.406 -7.625,-10.575 -7.625,-18.501 0,-7.031 2.463,-12.949 7.373,-17.745 4.91,-4.796 10.933,-7.194 18.078,-7.194 7.031,0 12.949,2.398 17.753,7.194 4.796,4.796 7.202,10.713 7.202,17.745 -0.009,7.812 -2.521,13.95 -7.544,18.412 z m 62.533,-155.028 c -3.853,7.145 -8.429,13.306 -13.737,18.501 -5.292,5.194 -14.81,13.924 -28.548,26.198 -3.788,3.463 -6.836,6.503 -9.12,9.12 -2.284,2.626 -3.991,5.023 -5.105,7.202 -1.122,2.178 -1.983,4.357 -2.593,6.535 -0.61,2.17 -1.528,5.999 -2.772,11.469 -2.113,11.608 -8.754,17.411 -19.915,17.411 -5.804,0 -10.681,-1.894 -14.656,-5.69 -3.959,-3.796 -5.934,-9.429 -5.934,-16.907 0,-9.372 1.455,-17.493 4.357,-24.361 2.886,-6.869 6.747,-12.892 11.543,-18.086 4.804,-5.194 11.274,-11.356 19.427,-18.501 7.145,-6.251 12.307,-10.965 15.485,-14.144 3.186,-3.186 5.861,-6.73 8.031,-10.632 2.187,-3.91 3.26,-8.145 3.26,-12.721 0,-8.933 -3.308,-16.46 -9.957,-22.597 -6.641,-6.137 -15.209,-9.21 -25.703,-9.21 -12.282,0 -21.321,3.097 -27.125,9.291 -5.804,6.194 -10.705,15.314 -14.729,27.369 -3.804,12.616 -11.006,18.923 -21.598,18.923 -6.251,0 -11.526,-2.203 -15.826,-6.609 -4.292,-4.406 -6.438,-9.177 -6.438,-14.314 0,-10.6 3.406,-21.346 10.21,-32.23 6.812,-10.884 16.745,-19.899 29.807,-27.036 13.054,-7.145 28.296,-10.722 45.699,-10.722 16.184,0 30.466,2.991 42.854,8.966 12.388,5.966 21.963,14.087 28.718,24.361 6.747,10.266 10.128,21.427 10.128,33.482 0.016,9.471 -1.91,17.787 -5.763,24.932 z"
         style="fill:#ee7d39"
         inkscape:connector-curvature="0" />
    </g>
    <g
       id="g1066"
       style="opacity:0.631;fill:#000000"
       transform="matrix(0.26458333,0,0,0.26458333,163.22943,98.884065)"
       clip-path="url(#clipPath1212)">
      <path
         id="path982"
         d="m -217.24842,327.39057 c -5.015,4.463 -10.827,6.706 -17.411,6.706 L -22.527386,546.2286 c 6.584,0 12.396,-2.243 17.4110004,-6.706 z"
         inkscape:connector-curvature="0"
         style="fill:#000000" />
      <path
         id="path984"
         d="m -234.65942,334.09657 c -6.812,0 -12.754,-2.203 -17.826,-6.617 L -40.353386,539.6116 c 5.072,4.414 11.014,6.617 17.826,6.617 z"
         inkscape:connector-curvature="0"
         style="fill:#000000" />
      <path
         id="path986"
         d="m -252.48542,327.47957 c -0.3983,-0.34546 -0.78102,-0.70175 -1.14815,-1.06888 l 212.132038,212.13204 c 0.367128,0.36713 0.749845,0.72342 1.148146,1.06887 z"
         inkscape:connector-curvature="0"
         style="fill:#000000" />
      <path
         id="path988"
         d="m -253.63357,326.41069 c -4.31529,-4.31529 -6.47685,-10.12756 -6.47685,-17.43212 L -47.978386,521.1106 c 0,7.30456 2.161561,13.11683 6.476854,17.43213 z"
         inkscape:connector-curvature="0"
         style="fill:#000000" />
      <path
         id="path990"
         d="m -260.11042,308.97857 c 0,-7.031 2.463,-12.949 7.373,-17.745 L -40.605386,503.3656 c -4.91,4.796 -7.373,10.714 -7.373,17.745 z"
         inkscape:connector-curvature="0"
         style="fill:#000000" />
      <path
         id="path992"
         d="m -252.73742,291.23357 c 4.91,-4.796 10.933,-7.194 18.078,-7.194 L -22.527386,496.1716 c -7.145,0 -13.168,2.398 -18.078,7.194 z"
         inkscape:connector-curvature="0"
         style="fill:#000000" />
      <path
         id="path994"
         d="m -234.65942,284.03957 c 7.031,0 12.949,2.398 17.753,7.194 L -4.7743856,503.3656 c -4.804,-4.796 -10.7220004,-7.194 -17.7530004,-7.194 z"
         inkscape:connector-curvature="0"
         style="fill:#000000" />
      <path
         id="path996"
         d="m -216.90642,291.23357 c 4.796,4.796 7.202,10.713 7.202,17.745 L 2.4276144,521.1106 c 0,-7.032 -2.40600004,-12.949 -7.202,-17.745 z"
         inkscape:connector-curvature="0"
         style="fill:#000000" />
      <path
         id="path998"
         d="m -209.70442,308.97857 c -0.009,7.812 -2.521,13.95 -7.544,18.412 L -5.1163856,539.5226 c 5.02299996,-4.462 7.535,-10.6 7.544,-18.412 z"
         inkscape:connector-curvature="0"
         style="fill:#000000" />
      <path
         id="path1000"
         d="m -154.71542,172.36257 c -3.853,7.145 -8.429,13.306 -13.737,18.501 L 43.679614,402.9956 c 5.308,-5.195 9.884,-11.356 13.737,-18.501 z"
         inkscape:connector-curvature="0"
         style="fill:#000000" />
      <path
         id="path1002"
         d="m -168.45242,190.86357 c -5.292,5.194 -14.81,13.924 -28.548,26.198 L 15.131614,429.1936 c 13.738,-12.274 23.256,-21.004 28.548,-26.198 z"
         inkscape:connector-curvature="0"
         style="fill:#000000" />
      <path
         id="path1004"
         d="m -197.00042,217.06157 c -3.788,3.463 -6.836,6.503 -9.12,9.12 L 6.0116144,438.3136 c 2.284,-2.617 5.3319996,-5.657 9.1199996,-9.12 z"
         inkscape:connector-curvature="0"
         style="fill:#000000" />
      <path
         id="path1006"
         d="m -206.12042,226.18157 c -2.284,2.626 -3.991,5.023 -5.105,7.202 L 0.90661436,445.5156 c 1.11400004,-2.179 2.82100004,-4.576 5.10500004,-7.202 z"
         inkscape:connector-curvature="0"
         style="fill:#000000" />
      <path
         id="path1008"
         d="m -211.22542,233.38357 c -1.122,2.178 -1.983,4.357 -2.593,6.535 L -1.6863856,452.0506 c 0.61,-2.178 1.47099996,-4.357 2.59299996,-6.535 z"
         inkscape:connector-curvature="0"
         style="fill:#000000" />
      <path
         id="path1010"
         d="m -213.81842,239.91857 c -0.61,2.17 -1.528,5.999 -2.772,11.469 L -4.4583856,463.5196 c 1.244,-5.47 2.162,-9.299 2.772,-11.469 z"
         inkscape:connector-curvature="0"
         style="fill:#000000" />
      <path
         id="path1012"
         d="m -216.59042,251.38757 c -2.113,11.608 -8.754,17.411 -19.915,17.411 L -24.373386,480.9306 c 11.161,0 17.8020004,-5.803 19.9150004,-17.411 z"
         inkscape:connector-curvature="0"
         style="fill:#000000" />
      <path
         id="path1014"
         d="m -236.50542,268.79857 c -5.804,0 -10.681,-1.894 -14.656,-5.69 L -39.029386,475.2406 c 3.975,3.796 8.852,5.69 14.656,5.69 z"
         inkscape:connector-curvature="0"
         style="fill:#000000" />
      <path
         id="path1016"
         d="m -251.16142,263.10857 c -0.0844,-0.081 -0.16798,-0.16277 -0.25062,-0.24541 L -39.280009,474.9952 c 0.08264,0.0826 0.16618,0.16444 0.250623,0.2454 z"
         inkscape:connector-curvature="0"
         style="fill:#000000" />
      <path
         id="path1018"
         d="m -251.41204,262.86316 c -3.79173,-3.79173 -5.68338,-9.34309 -5.68338,-16.66159 L -44.963386,458.3336 c 0,7.3185 1.891647,12.86987 5.683377,16.6616 z"
         inkscape:connector-curvature="0"
         style="fill:#000000" />
      <path
         id="path1020"
         d="m -257.09542,246.20157 c 0,-9.372 1.455,-17.493 4.357,-24.361 L -40.606386,433.9726 c -2.902,6.868 -4.357,14.989 -4.357,24.361 z"
         inkscape:connector-curvature="0"
         style="fill:#000000" />
      <path
         id="path1022"
         d="m -252.73842,221.84057 c 2.886,-6.869 6.747,-12.892 11.543,-18.086 L -29.063386,415.8866 c -4.796,5.194 -8.657,11.217 -11.543,18.086 z"
         inkscape:connector-curvature="0"
         style="fill:#000000" />
      <path
         id="path1024"
         d="m -241.19542,203.75457 c 4.804,-5.194 11.274,-11.356 19.427,-18.501 L -9.6363856,397.3856 c -8.1530004,7.145 -14.6230004,13.307 -19.4270004,18.501 z"
         inkscape:connector-curvature="0"
         style="fill:#000000" />
      <path
         id="path1026"
         d="m -221.76842,185.25357 c 7.145,-6.251 12.307,-10.965 15.485,-14.144 L 5.8486144,383.2416 c -3.178,3.179 -8.34,7.893 -15.485,14.144 z"
         inkscape:connector-curvature="0"
         style="fill:#000000" />
      <path
         id="path1028"
         d="m -206.28342,171.10957 c 3.186,-3.186 5.861,-6.73 8.031,-10.632 L 13.879614,372.6096 c -2.17,3.902 -4.8449996,7.446 -8.0309996,10.632 z"
         inkscape:connector-curvature="0"
         style="fill:#000000" />
      <path
         id="path1030"
         d="m -198.25242,160.47757 c 2.187,-3.91 3.26,-8.145 3.26,-12.721 L 17.139614,359.8886 c 0,4.576 -1.073,8.811 -3.26,12.721 z"
         inkscape:connector-curvature="0"
         style="fill:#000000" />
      <path
         id="path1032"
         d="m -194.99242,147.75657 c 0,-8.44958 -2.95965,-15.64121 -8.90689,-21.58845 L 8.232727,338.30016 c 5.947234,5.94723 8.906887,13.13887 8.906887,21.58844 z"
         inkscape:connector-curvature="0"
         style="fill:#000000" />
      <path
         id="path1034"
         d="m -203.89931,126.16812 c -0.34025,-0.34025 -0.69029,-0.67644 -1.05011,-1.00855 L 7.1826144,337.2916 c 0.3598202,0.33212 0.709856,0.6683 1.0501126,1.00856 z"
         inkscape:connector-curvature="0"
         style="fill:#000000" />
      <path
         id="path1036"
         d="m -204.94942,125.15957 c -6.641,-6.137 -15.209,-9.21 -25.703,-9.21 L -18.520386,328.0816 c 10.4940004,0 19.06200036,3.073 25.7030004,9.21 z"
         inkscape:connector-curvature="0"
         style="fill:#000000" />
      <path
         id="path1038"
         d="m -230.65242,115.94957 c -12.282,0 -21.321,3.097 -27.125,9.291 L -45.645386,337.3726 c 5.804,-6.194 14.843,-9.291 27.125,-9.291 z"
         inkscape:connector-curvature="0"
         style="fill:#000000" />
      <path
         id="path1040"
         d="m -257.77742,125.24057 c -5.804,6.194 -10.70501,15.314 -14.72901,27.369 L -60.374396,364.7416 c 4.024,-12.055 8.92501,-21.175 14.72901,-27.369 z"
         inkscape:connector-curvature="0"
         style="fill:#000000" />
      <path
         id="path1042"
         d="m -272.50643,152.60957 c -3.804,12.616 -11.006,18.923 -21.59799,18.923 L -81.972386,383.6646 c 10.59199,0 17.79399,-6.307 21.59799,-18.923 z"
         inkscape:connector-curvature="0"
         style="fill:#000000" />
      <path
         id="path1044"
         d="m -294.10442,171.53257 c -6.14675,0 -11.34979,-2.13013 -15.61005,-6.3904 L -97.582437,377.2742 c 4.260266,4.26027 9.4633,6.3904 15.610051,6.3904 z"
         inkscape:connector-curvature="0"
         style="fill:#000000" />
      <path
         id="path1046"
         d="m -309.71447,165.14217 c -0.0723,-0.0722 -0.14424,-0.14512 -0.21595,-0.2186 L -97.798386,377.0556 c 0.07171,0.0735 0.143695,0.14635 0.215949,0.2186 z"
         inkscape:connector-curvature="0"
         style="fill:#000000" />
      <path
         id="path1048"
         d="m -309.93042,164.92357 c -4.292,-4.406 -6.438,-9.177 -6.438,-14.314 l 212.13203,212.13203 c 0,5.137 2.146,9.908 6.438004,14.314 z"
         inkscape:connector-curvature="0"
         style="fill:#000000" />
      <path
         id="path1050"
         d="m -316.36842,150.60957 c 0,-10.6 3.406,-21.346 10.21,-32.23 L -94.026386,330.5116 c -6.804004,10.884 -10.210004,21.63 -10.210004,32.23 z"
         inkscape:connector-curvature="0"
         style="fill:#000000" />
      <path
         id="path1052"
         d="m -306.15842,118.37957 c 6.812,-10.884 16.745,-19.898998 29.80699,-27.035988 L -64.219396,303.47562 c -13.06199,7.13699 -22.99499,16.15198 -29.80699,27.03598 z"
         inkscape:connector-curvature="0"
         style="fill:#000000" />
      <path
         id="path1054"
         d="m -276.35143,91.343582 c 13.05401,-7.145005 28.29601,-10.722005 45.69901,-10.722005 L -18.520386,292.75361 c -17.403,0 -32.645,3.577 -45.69901,10.72201 z"
         inkscape:connector-curvature="0"
         style="fill:#000000" />
      <path
         id="path1056"
         d="m -230.65242,80.621577 c 16.184,0 30.466,2.991 42.854,8.966005 L 24.333614,301.71962 c -12.388,-5.97501 -26.6699996,-8.96601 -42.854,-8.96601 z"
         inkscape:connector-curvature="0"
         style="fill:#000000" />
      <path
         id="path1058"
         d="m -187.79842,89.587582 c 8.00422,3.854794 14.83407,8.609252 20.48766,14.262838 L 44.821276,315.98246 c -5.65359,-5.65359 -12.48344,-10.40805 -20.487662,-14.26284 z"
         inkscape:connector-curvature="0"
         style="fill:#000000" />
      <path
         id="path1060"
         d="m -167.31076,103.85042 c 3.09638,3.09638 5.83993,6.46246 8.23034,10.09815 L 53.051614,326.0806 c -2.390412,-3.63569 -5.133961,-7.00176 -8.230338,-10.09814 z"
         inkscape:connector-curvature="0"
         style="fill:#000000" />
      <path
         id="path1062"
         d="m -159.08042,113.94857 c 6.747,10.266 10.128,21.427 10.128,33.482 L 63.179614,359.5626 c 0,-12.055 -3.381,-23.216 -10.128,-33.482 z"
         inkscape:connector-curvature="0"
         style="fill:#000000" />
      <path
         id="path1064"
         d="m -148.95242,147.43057 c 0.016,9.471 -1.91,17.787 -5.763,24.932 L 57.416614,384.4946 c 3.853,-7.145 5.779,-15.461 5.763,-24.932 z"
         inkscape:connector-curvature="0"
         style="fill:#000000" />
    </g>
    <path
       sodipodi:nodetypes="cscssscccsccccccscscccccscsscscsccscccs"
       id="path830"
       d="m 105.74912,185.50615 c -1.32689,1.18084 -2.86464,1.7743 -4.60666,1.7743 -1.802342,0 -3.374497,-0.58288 -4.716463,-1.75075 -1.344084,-1.16575 -2.017448,-2.79797 -2.017448,-4.89506 0,-1.86028 0.651669,-3.42609 1.950773,-4.69503 1.299104,-1.26894 2.892689,-1.90341 4.783138,-1.90341 1.86028,0 3.42609,0.63447 4.69715,1.90341 1.26894,1.26894 1.90553,2.83448 1.90553,4.69503 -0.002,2.06693 -0.66702,3.69094 -1.99602,4.87151 z m 16.54519,-41.01782 c -1.01944,1.89045 -2.23017,3.52054 -3.63458,4.89505 -1.40018,1.37425 -3.91848,3.68406 -7.55333,6.93156 -1.00224,0.91625 -1.80869,1.72058 -2.413,2.413 -0.60431,0.69479 -1.05595,1.329 -1.3507,1.90553 -0.29686,0.57626 -0.52466,1.15279 -0.68606,1.72905 -0.1614,0.57415 -0.40428,1.58723 -0.73342,3.03451 -0.55907,3.07128 -2.31617,4.60666 -5.26918,4.60666 -1.535643,0 -2.826016,-0.50113 -3.877735,-1.50548 -1.047485,-1.00436 -1.570037,-2.49476 -1.570037,-4.47331 0,-2.47968 0.384968,-4.62836 1.152789,-6.44552 0.763588,-1.81742 1.785144,-3.41101 3.054086,-4.78525 1.271057,-1.37425 2.982917,-3.00461 5.140057,-4.89506 1.89045,-1.65391 3.25623,-2.90115 4.09708,-3.74227 0.84296,-0.84296 1.55072,-1.78064 2.12486,-2.81305 0.57865,-1.03452 0.86255,-2.15503 0.86255,-3.36576 0,-2.36352 -0.87525,-4.35504 -2.63446,-5.97879 -1.7571,-1.62375 -4.02405,-2.43681 -6.80059,-2.43681 -3.249608,0 -5.641177,0.81941 -7.176818,2.45824 -1.535642,1.63883 -2.832367,4.05183 -3.897051,7.24138 -1.006475,3.33799 -2.912004,5.00671 -5.714468,5.00671 -1.65391,0 -3.049587,-0.58287 -4.187296,-1.74863 -1.135591,-1.16575 -1.703387,-2.42808 -1.703387,-3.78724 0,-2.80459 0.901171,-5.6478 2.701396,-8.52752 1.802341,-2.87973 4.430448,-5.26495 7.886432,-7.15328 3.453874,-1.89045 7.486653,-2.83686 12.091192,-2.83686 4.28202,0 8.0608,0.79137 11.33846,2.37226 3.27766,1.5785 5.81104,3.72718 7.5983,6.44551 1.78515,2.71621 2.6797,5.66922 2.6797,8.85878 0.004,2.50586 -0.50535,4.70614 -1.52479,6.59659 z"
       style="fill:#ffffff;stroke-width:0.26458332"
       inkscape:connector-curvature="0" />
  </g>
  <g
     inkscape:groupmode="layer"
     id="layer2"
     inkscape:label="Layer 2" />
</svg>
