<?xml version="1.0" encoding="UTF-8" standalone="no"?>
<!-- Created with Inkscape (http://www.inkscape.org/) -->

<svg
   xmlns:dc="http://purl.org/dc/elements/1.1/"
   xmlns:cc="http://creativecommons.org/ns#"
   xmlns:rdf="http://www.w3.org/1999/02/22-rdf-syntax-ns#"
   xmlns:svg="http://www.w3.org/2000/svg"
   xmlns="http://www.w3.org/2000/svg"
   xmlns:sodipodi="http://sodipodi.sourceforge.net/DTD/sodipodi-0.dtd"
   xmlns:inkscape="http://www.inkscape.org/namespaces/inkscape"
   width="68.050919mm"
   height="68.050919mm"
   viewBox="0 0 68.050919 68.050919"
   version="1.1"
   id="svg8"
   inkscape:version="0.92.4 (5da689c313, 2019-01-14)"
   sodipodi:docname="WhiteT.svg">
  <defs
     id="defs2" />
  <sodipodi:namedview
     id="base"
     pagecolor="#ffffff"
     bordercolor="#666666"
     borderopacity="1.0"
     inkscape:pageopacity="0.0"
     inkscape:pageshadow="2"
     inkscape:zoom="0.98994949"
     inkscape:cx="-41.514531"
     inkscape:cy="83.409743"
     inkscape:document-units="mm"
     inkscape:current-layer="layer1"
     showgrid="false"
     fit-margin-top="0"
     fit-margin-left="0"
     fit-margin-right="0"
     fit-margin-bottom="0"
     inkscape:window-width="1920"
     inkscape:window-height="1057"
     inkscape:window-x="-8"
     inkscape:window-y="-8"
     inkscape:window-maximized="1" />
  <metadata
     id="metadata5">
    <rdf:RDF>
      <cc:Work
         rdf:about="">
        <dc:format>image/svg+xml</dc:format>
        <dc:type
           rdf:resource="http://purl.org/dc/dcmitype/StillImage" />
        <dc:title></dc:title>
      </cc:Work>
    </rdf:RDF>
  </metadata>
  <g
     inkscape:label="Layer 1"
     inkscape:groupmode="layer"
     id="layer1"
     transform="translate(-61.523398,-98.47016)">
    <path
       style="opacity:1;fill:#ffffff;fill-opacity:0.43137255;stroke:#a81818;stroke-width:2.64188981;stroke-linejoin:round;stroke-miterlimit:4;stroke-dasharray:none;stroke-dashoffset:0;stroke-opacity:0"
       d="M 128.59961 22.816406 A 105.78402 105.78402 0 0 0 121.11719 23.082031 A 105.78402 105.78402 0 0 0 110.62109 24.355469 A 105.78402 105.78402 0 0 0 100.30273 26.671875 A 105.78402 105.78402 0 0 0 90.267578 30.005859 A 105.78402 105.78402 0 0 0 80.617188 34.324219 A 105.78402 105.78402 0 0 0 71.445312 39.585938 A 105.78402 105.78402 0 0 0 62.84375 45.736328 A 105.78402 105.78402 0 0 0 54.900391 52.714844 A 105.78402 105.78402 0 0 0 47.691406 60.453125 A 105.78402 105.78402 0 0 0 41.292969 68.869141 A 105.78402 105.78402 0 0 0 35.765625 77.884766 A 105.78402 105.78402 0 0 0 31.166016 87.40625 A 105.78402 105.78402 0 0 0 27.541016 97.337891 A 105.78402 105.78402 0 0 0 24.923828 107.58398 A 105.78402 105.78402 0 0 0 23.34375 118.03906 A 105.78402 105.78402 0 0 0 22.816406 128.59961 A 105.78402 105.78402 0 0 0 23.082031 136.08398 A 105.78402 105.78402 0 0 0 24.355469 146.58008 A 105.78402 105.78402 0 0 0 26.671875 156.89648 A 105.78402 105.78402 0 0 0 30.005859 166.93164 A 105.78402 105.78402 0 0 0 34.324219 176.58398 A 105.78402 105.78402 0 0 0 39.585938 185.75586 A 105.78402 105.78402 0 0 0 45.736328 194.35742 A 105.78402 105.78402 0 0 0 52.714844 202.30078 A 105.78402 105.78402 0 0 0 60.453125 209.50781 A 105.78402 105.78402 0 0 0 68.869141 215.9082 A 105.78402 105.78402 0 0 0 77.884766 221.43359 A 105.78402 105.78402 0 0 0 87.40625 226.0332 A 105.78402 105.78402 0 0 0 97.337891 229.66016 A 105.78402 105.78402 0 0 0 107.58398 232.27539 A 105.78402 105.78402 0 0 0 118.03906 233.85547 A 105.78402 105.78402 0 0 0 128.59961 234.38477 A 105.78402 105.78402 0 0 0 136.08398 234.11914 A 105.78402 105.78402 0 0 0 146.58008 232.8457 A 105.78402 105.78402 0 0 0 156.89648 230.5293 A 105.78402 105.78402 0 0 0 166.93164 227.19531 A 105.78402 105.78402 0 0 0 176.58398 222.875 A 105.78402 105.78402 0 0 0 185.75586 217.61523 A 105.78402 105.78402 0 0 0 194.35742 211.46289 A 105.78402 105.78402 0 0 0 202.30078 204.48438 A 105.78402 105.78402 0 0 0 209.50781 196.74805 A 105.78402 105.78402 0 0 0 215.9082 188.33008 A 105.78402 105.78402 0 0 0 221.43359 179.31641 A 105.78402 105.78402 0 0 0 226.0332 169.79492 A 105.78402 105.78402 0 0 0 229.66016 159.86133 A 105.78402 105.78402 0 0 0 232.27539 149.61523 A 105.78402 105.78402 0 0 0 233.85547 139.16016 A 105.78402 105.78402 0 0 0 234.38477 128.59961 A 105.78402 105.78402 0 0 0 234.11914 121.11719 A 105.78402 105.78402 0 0 0 232.8457 110.62109 A 105.78402 105.78402 0 0 0 230.5293 100.30273 A 105.78402 105.78402 0 0 0 227.19531 90.267578 A 105.78402 105.78402 0 0 0 222.875 80.617188 A 105.78402 105.78402 0 0 0 217.61523 71.445312 A 105.78402 105.78402 0 0 0 211.46289 62.84375 A 105.78402 105.78402 0 0 0 204.48438 54.900391 A 105.78402 105.78402 0 0 0 196.74805 47.691406 A 105.78402 105.78402 0 0 0 188.33008 41.292969 A 105.78402 105.78402 0 0 0 179.31641 35.765625 A 105.78402 105.78402 0 0 0 169.79492 31.166016 A 105.78402 105.78402 0 0 0 159.86133 27.541016 A 105.78402 105.78402 0 0 0 149.61523 24.923828 A 105.78402 105.78402 0 0 0 139.16016 23.34375 A 105.78402 105.78402 0 0 0 128.59961 22.816406 z "
       id="path826"
       transform="matrix(0.26458333,0,0,0.26458333,61.523398,98.47016)" />
    <path
       style="opacity:1;fill:#000000;fill-opacity:1;stroke:#a81818;stroke-width:2.64188981;stroke-linejoin:round;stroke-miterlimit:4;stroke-dasharray:none;stroke-dashoffset:0;stroke-opacity:0"
       d="M 128.59961 1.3203125 A 127.27922 127.27922 0 0 0 1.3203125 128.59961 A 127.27922 127.27922 0 0 0 128.59961 255.87891 A 127.27922 127.27922 0 0 0 255.87891 128.59961 A 127.27922 127.27922 0 0 0 128.59961 1.3203125 z M 128.59961 22.816406 A 105.78402 105.78402 0 0 1 139.16016 23.34375 A 105.78402 105.78402 0 0 1 149.61523 24.923828 A 105.78402 105.78402 0 0 1 159.86133 27.541016 A 105.78402 105.78402 0 0 1 169.79492 31.166016 A 105.78402 105.78402 0 0 1 179.31641 35.765625 A 105.78402 105.78402 0 0 1 188.33008 41.292969 A 105.78402 105.78402 0 0 1 196.74805 47.691406 A 105.78402 105.78402 0 0 1 204.48438 54.900391 A 105.78402 105.78402 0 0 1 211.46289 62.84375 A 105.78402 105.78402 0 0 1 217.61523 71.445312 A 105.78402 105.78402 0 0 1 222.875 80.617188 A 105.78402 105.78402 0 0 1 227.19531 90.267578 A 105.78402 105.78402 0 0 1 230.5293 100.30273 A 105.78402 105.78402 0 0 1 232.8457 110.62109 A 105.78402 105.78402 0 0 1 234.11914 121.11719 A 105.78402 105.78402 0 0 1 234.38477 128.59961 A 105.78402 105.78402 0 0 1 233.85547 139.16016 A 105.78402 105.78402 0 0 1 232.27539 149.61523 A 105.78402 105.78402 0 0 1 229.66016 159.86133 A 105.78402 105.78402 0 0 1 226.0332 169.79492 A 105.78402 105.78402 0 0 1 221.43359 179.31641 A 105.78402 105.78402 0 0 1 215.9082 188.33008 A 105.78402 105.78402 0 0 1 209.50781 196.74805 A 105.78402 105.78402 0 0 1 202.30078 204.48438 A 105.78402 105.78402 0 0 1 194.35742 211.46289 A 105.78402 105.78402 0 0 1 185.75586 217.61523 A 105.78402 105.78402 0 0 1 176.58398 222.875 A 105.78402 105.78402 0 0 1 166.93164 227.19531 A 105.78402 105.78402 0 0 1 156.89648 230.5293 A 105.78402 105.78402 0 0 1 146.58008 232.8457 A 105.78402 105.78402 0 0 1 136.08398 234.11914 A 105.78402 105.78402 0 0 1 128.59961 234.38477 A 105.78402 105.78402 0 0 1 118.03906 233.85547 A 105.78402 105.78402 0 0 1 107.58398 232.27539 A 105.78402 105.78402 0 0 1 97.337891 229.66016 A 105.78402 105.78402 0 0 1 87.40625 226.0332 A 105.78402 105.78402 0 0 1 77.884766 221.43359 A 105.78402 105.78402 0 0 1 68.869141 215.9082 A 105.78402 105.78402 0 0 1 60.453125 209.50781 A 105.78402 105.78402 0 0 1 52.714844 202.30078 A 105.78402 105.78402 0 0 1 45.736328 194.35742 A 105.78402 105.78402 0 0 1 39.585938 185.75586 A 105.78402 105.78402 0 0 1 34.324219 176.58398 A 105.78402 105.78402 0 0 1 30.005859 166.93164 A 105.78402 105.78402 0 0 1 26.671875 156.89648 A 105.78402 105.78402 0 0 1 24.355469 146.58008 A 105.78402 105.78402 0 0 1 23.082031 136.08398 A 105.78402 105.78402 0 0 1 22.816406 128.59961 A 105.78402 105.78402 0 0 1 23.34375 118.03906 A 105.78402 105.78402 0 0 1 24.923828 107.58398 A 105.78402 105.78402 0 0 1 27.541016 97.337891 A 105.78402 105.78402 0 0 1 31.166016 87.40625 A 105.78402 105.78402 0 0 1 35.765625 77.884766 A 105.78402 105.78402 0 0 1 41.292969 68.869141 A 105.78402 105.78402 0 0 1 47.691406 60.453125 A 105.78402 105.78402 0 0 1 54.900391 52.714844 A 105.78402 105.78402 0 0 1 62.84375 45.736328 A 105.78402 105.78402 0 0 1 71.445312 39.585938 A 105.78402 105.78402 0 0 1 80.617188 34.324219 A 105.78402 105.78402 0 0 1 90.267578 30.005859 A 105.78402 105.78402 0 0 1 100.30273 26.671875 A 105.78402 105.78402 0 0 1 110.62109 24.355469 A 105.78402 105.78402 0 0 1 121.11719 23.082031 A 105.78402 105.78402 0 0 1 128.59961 22.816406 z "
       id="path815"
       transform="matrix(0.26458333,0,0,0.26458333,61.523398,98.47016)" />
  </g>
</svg>
