<?xml version="1.0" encoding="UTF-8" standalone="no"?>
<!-- Created with Inkscape (http://www.inkscape.org/) -->

<svg
   xmlns:dc="http://purl.org/dc/elements/1.1/"
   xmlns:cc="http://creativecommons.org/ns#"
   xmlns:rdf="http://www.w3.org/1999/02/22-rdf-syntax-ns#"
   xmlns:svg="http://www.w3.org/2000/svg"
   xmlns="http://www.w3.org/2000/svg"
   xmlns:sodipodi="http://sodipodi.sourceforge.net/DTD/sodipodi-0.dtd"
   xmlns:inkscape="http://www.inkscape.org/namespaces/inkscape"
   width="74.498901mm"
   height="74.498894mm"
   viewBox="0 0 74.498901 74.498894"
   version="1.1"
   id="svg830"
   inkscape:version="0.92.4 (5da689c313, 2019-01-14)"
   sodipodi:docname="CircleInk.svg">
  <defs
     id="defs824" />
  <sodipodi:namedview
     id="base"
     pagecolor="#ffffff"
     bordercolor="#666666"
     borderopacity="1.0"
     inkscape:pageopacity="0.0"
     inkscape:pageshadow="2"
     inkscape:zoom="0.7"
     inkscape:cx="152.18944"
     inkscape:cy="-45.688693"
     inkscape:document-units="mm"
     inkscape:current-layer="layer1"
     showgrid="false"
     inkscape:window-width="958"
     inkscape:window-height="1048"
     inkscape:window-x="953"
     inkscape:window-y="0"
     inkscape:window-maximized="0"
     fit-margin-top="0"
     fit-margin-left="0"
     fit-margin-right="0"
     fit-margin-bottom="0" />
  <metadata
     id="metadata827">
    <rdf:RDF>
      <cc:Work
         rdf:about="">
        <dc:format>image/svg+xml</dc:format>
        <dc:type
           rdf:resource="http://purl.org/dc/dcmitype/StillImage" />
        <dc:title></dc:title>
      </cc:Work>
    </rdf:RDF>
  </metadata>
  <g
     inkscape:label="Layer 1"
     inkscape:groupmode="layer"
     id="layer1"
     transform="translate(-21.922619,-22.771941)">
    <path
       style="opacity:1;fill:#000000;fill-opacity:1;stroke:#a81818;stroke-width:0.50100142;stroke-linejoin:round;stroke-miterlimit:4;stroke-dasharray:none;stroke-dashoffset:0;stroke-opacity:0;image-rendering:auto"
       d="M 59.172069,23.022442 A 36.998987,36.998992 0 0 0 22.17312,60.021383 36.998987,36.998992 0 0 0 59.172069,97.020332 36.998987,36.998992 0 0 0 96.171019,60.021383 36.998987,36.998992 0 0 0 59.172069,23.022442 Z m 0,9.68707 a 27.311787,27.311789 0 0 1 2.72678,0.13667 27.311787,27.311789 0 0 1 2.69937,0.40779 27.311787,27.311789 0 0 1 2.64493,0.67559 27.311787,27.311789 0 0 1 2.56455,0.93596 27.311787,27.311789 0 0 1 2.45824,1.18745 27.311787,27.311789 0 0 1 2.32751,1.4271 27.311787,27.311789 0 0 1 2.17342,1.65229 27.311787,27.311789 0 0 1 1.9975,1.860821 27.311787,27.311789 0 0 1 1.80192,2.05083 27.311787,27.311789 0 0 1 1.58785,2.22084 27.311787,27.311789 0 0 1 1.35858,2.36824 27.311787,27.311789 0 0 1 1.11523,2.49159 27.311787,27.311789 0 0 1 0.86078,2.59085 27.311787,27.311789 0 0 1 0.59779,2.66381 27.311787,27.311789 0 0 1 0.3289,2.71011 27.311787,27.311789 0 0 1 0.0686,1.93193 27.311787,27.311789 0 0 1 -0.1363,2.726789 27.311787,27.311789 0 0 1 -0.40816,2.69937 27.311787,27.311789 0 0 1 -0.67559,2.64492 27.311787,27.311789 0 0 1 -0.93596,2.56455 27.311787,27.311789 0 0 1 -1.18746,2.45825 27.311787,27.311789 0 0 1 -1.42709,2.32751 27.311787,27.311789 0 0 1 -1.65193,2.17342 27.311787,27.311789 0 0 1 -1.86118,1.9975 27.311787,27.311789 0 0 1 -2.05083,1.80192 27.311787,27.311789 0 0 1 -2.22084,1.58784 27.311787,27.311789 0 0 1 -2.36787,1.35858 27.311787,27.311789 0 0 1 -2.49195,1.11523 27.311787,27.311789 0 0 1 -2.59085,0.86078 27.311787,27.311789 0 0 1 -2.66382,0.59779 27.311787,27.311789 0 0 1 -2.71012,0.32891 27.311787,27.311789 0 0 1 -1.93193,0.0686 27.311787,27.311789 0 0 1 -2.7264,-0.1363 27.311787,27.311789 0 0 1 -2.69938,-0.40817 27.311787,27.311789 0 0 1 -2.6453,-0.67522 27.311787,27.311789 0 0 1 -2.56454,-0.93633 27.311787,27.311789 0 0 1 -2.45826,-1.18747 27.311787,27.311789 0 0 1 -2.32749,-1.42709 27.311787,27.311789 0 0 1 -2.17344,-1.65193 27.311787,27.311789 0 0 1 -1.99748,-1.86117 27.311787,27.311789 0 0 1 -1.80156,-2.05084 27.311787,27.311789 0 0 1 -1.58823,-2.22084 27.311787,27.311789 0 0 1 -1.3582,-2.36787 27.311787,27.311789 0 0 1 -1.11521,-2.49196 27.311787,27.311789 0 0 1 -0.86078,-2.59084 27.311787,27.311789 0 0 1 -0.59817,-2.6638 27.311787,27.311789 0 0 1 -0.32891,-2.71013 27.311787,27.311789 0 0 1 -0.0686,-1.931929 27.311787,27.311789 0 0 1 0.13668,-2.72641 27.311787,27.311789 0 0 1 0.40778,-2.69939 27.311787,27.311789 0 0 1 0.67559,-2.64529 27.311787,27.311789 0 0 1 0.93597,-2.56454 27.311787,27.311789 0 0 1 1.18745,-2.45826 27.311787,27.311789 0 0 1 1.42709,-2.3275 27.311787,27.311789 0 0 1 1.65231,-2.17343 27.311787,27.311789 0 0 1 1.8608,-1.99749 27.311787,27.311789 0 0 1 2.05083,-1.801551 27.311787,27.311789 0 0 1 2.22084,-1.58822 27.311787,27.311789 0 0 1 2.36824,-1.3582 27.311787,27.311789 0 0 1 2.49159,-1.11523 27.311787,27.311789 0 0 1 2.59086,-0.86077 27.311787,27.311789 0 0 1 2.66381,-0.59818 27.311787,27.311789 0 0 1 2.71011,-0.32891 27.311787,27.311789 0 0 1 1.93194,-0.0685 z"
       id="path835"
       inkscape:connector-curvature="0" />
  </g>
</svg>
