<?xml version="1.0" encoding="UTF-8" standalone="no"?>
<!-- Created with Inkscape (http://www.inkscape.org/) -->

<svg
   xmlns:dc="http://purl.org/dc/elements/1.1/"
   xmlns:cc="http://creativecommons.org/ns#"
   xmlns:rdf="http://www.w3.org/1999/02/22-rdf-syntax-ns#"
   xmlns:svg="http://www.w3.org/2000/svg"
   xmlns="http://www.w3.org/2000/svg"
   xmlns:sodipodi="http://sodipodi.sourceforge.net/DTD/sodipodi-0.dtd"
   xmlns:inkscape="http://www.inkscape.org/namespaces/inkscape"
   width="104.708mm"
   height="104.70799mm"
   viewBox="0 0 104.708 104.70799"
   version="1.1"
   id="svg8"
   inkscape:version="0.92.4 (5da689c313, 2019-01-14)"
   sodipodi:docname="Code.svg">
  <defs
     id="defs2" />
  <sodipodi:namedview
     id="base"
     pagecolor="#ffffff"
     bordercolor="#666666"
     borderopacity="1.0"
     inkscape:pageopacity="0.0"
     inkscape:pageshadow="2"
     inkscape:zoom="0.98994949"
     inkscape:cx="204.03207"
     inkscape:cy="132.17552"
     inkscape:document-units="mm"
     inkscape:current-layer="layer1"
     showgrid="false"
     fit-margin-top="0"
     fit-margin-left="0"
     fit-margin-right="0"
     fit-margin-bottom="0"
     inkscape:window-width="1920"
     inkscape:window-height="1057"
     inkscape:window-x="-8"
     inkscape:window-y="-8"
     inkscape:window-maximized="1" />
  <metadata
     id="metadata5">
    <rdf:RDF>
      <cc:Work
         rdf:about="">
        <dc:format>image/svg+xml</dc:format>
        <dc:type
           rdf:resource="http://purl.org/dc/dcmitype/StillImage" />
        <dc:title></dc:title>
      </cc:Work>
    </rdf:RDF>
  </metadata>
  <g
     inkscape:label="Layer 1"
     inkscape:groupmode="layer"
     id="layer1"
     transform="translate(-10.668177,-39.202283)">
    <path
       style="opacity:1;fill:#1a1a1a;fill-opacity:1;stroke:#a81818;stroke-width:2.53877163;stroke-linejoin:round;stroke-miterlimit:4;stroke-dasharray:none;stroke-dashoffset:0;stroke-opacity:0"
       d="M 63.021368,40.471669 C 34.808691,40.471983 11.937874,63.3428 11.937563,91.555477 11.93699,119.76878 34.808065,142.64057 63.021368,142.64089 91.235311,142.64147 114.10735,119.76941 114.10679,91.555477 114.10648,63.342168 91.234689,40.47109 63.021368,40.471669 Z M 51.298483,78.964227 c 1.732043,0 3.285389,0.286567 4.660204,0.860318 1.38564,0.562916 2.559852,1.368501 3.523302,2.418551 0.985103,1.082531 1.738127,2.408717 2.257741,3.978381 0.530435,1.569674 0.794389,3.35018 0.794389,5.342035 0,1.991864 -0.269204,3.779234 -0.810467,5.359728 -0.530441,1.569671 -1.278212,2.878481 -2.241663,3.92853 -0.995931,1.09336 -2.175392,1.91631 -3.539381,2.4684 -1.35316,0.55209 -2.901253,0.82816 -4.644125,0.82816 -1.69958,0 -3.247664,-0.28134 -4.644134,-0.84424 -1.38564,-0.56291 -2.565101,-1.38061 -3.539378,-2.45232 -0.97428,-1.071704 -1.727303,-2.385764 -2.257738,-3.944612 -0.519615,-1.558845 -0.779919,-3.340962 -0.779919,-5.343646 0,-1.970203 0.260304,-3.733335 0.779919,-5.29218 0.519609,-1.569674 1.277894,-2.913227 2.273817,-4.028236 0.952631,-1.060879 2.132095,-1.871717 3.539381,-2.434629 1.418113,-0.562916 2.960954,-0.84424 4.628052,-0.84424 z m -22.619226,0.06432 c 1.299036,0 2.592084,0.15724 3.880291,0.471161 1.299036,0.313939 2.738803,0.866075 4.319294,1.656322 v 3.815963 H 36.636027 C 35.304513,83.856991 33.983586,83.044547 32.673724,82.535758 31.363862,82.02697 29.960888,81.77353 28.466997,81.77353 c -1.223263,0 -2.327539,0.199281 -3.312642,0.599816 -0.97428,0.389712 -1.844529,1.001269 -2.61313,1.834814 -0.746946,0.811899 -1.332223,1.840987 -1.754413,3.085905 -0.411364,1.23408 -0.6175,2.663333 -0.6175,4.287133 0,1.699571 0.228781,3.160359 0.683433,4.383622 0.465488,1.223254 1.059675,2.21921 1.784968,2.987802 0.757772,0.801073 1.640142,1.396868 2.646893,1.786588 1.017584,0.37888 2.090325,0.56764 3.216154,0.56764 1.548022,0 2.998301,-0.26556 4.351464,-0.796 1.35316,-0.53044 2.619929,-1.325504 3.799885,-2.386389 h 0.226727 v 3.767739 c -0.595388,0.2598 -1.137019,0.50273 -1.624153,0.73006 -0.476317,0.22735 -1.103641,0.46501 -1.883059,0.71398 -0.66035,0.2057 -1.380226,0.37869 -2.159653,0.51941 -0.768592,0.15155 -1.61782,0.22835 -2.548799,0.22835 -1.753707,0 -3.350696,-0.24453 -4.790464,-0.73168 -1.428942,-0.49796 -2.674691,-1.27201 -3.735566,-2.32206 -1.03923,-1.02841 -1.850062,-2.331964 -2.43463,-3.912454 -0.584568,-1.59132 -0.878012,-3.436505 -0.878012,-5.536614 0,-1.991854 0.281339,-3.773975 0.84424,-5.343646 0.562916,-1.569668 1.375359,-2.895854 2.436241,-3.978385 1.028407,-1.050049 2.267288,-1.850372 3.717872,-2.402468 1.461423,-0.55209 3.081048,-0.828152 4.856398,-0.828152 z m 38.954078,0.439 h 6.03995 c 2.359912,0 4.232979,0.172986 5.61861,0.519413 1.396461,0.335581 2.577552,0.800413 3.541003,1.395807 1.645437,1.028403 2.927974,2.398239 3.848108,4.108636 0.920166,1.710406 1.379751,3.740704 1.379751,6.089795 0,2.19754 -0.482208,4.189438 -1.445659,5.975614 -0.952653,1.786179 -2.224672,3.171778 -3.815994,4.156888 -1.104168,0.68199 -2.337787,1.1731 -3.701791,1.47621 -1.353144,0.30313 -3.138924,0.45509 -5.358088,0.45509 h -6.10589 z m 25.656867,0 h 15.928008 v 2.857554 H 96.504775 v 6.625283 h 12.713435 v 2.857554 H 96.504775 v 8.979502 H 109.21821 V 103.645 H 93.290202 Z"
       id="path1902"
       inkscape:connector-curvature="0"
       sodipodi:nodetypes="cccccscccscccscccscccscccccsscccscccscccccccscccsccccccscccscccsccccccccccccccc" />
  </g>
</svg>
