<?xml version="1.0" encoding="UTF-8" standalone="no"?>
<svg
   xmlns:dc="http://purl.org/dc/elements/1.1/"
   xmlns:cc="http://creativecommons.org/ns#"
   xmlns:rdf="http://www.w3.org/1999/02/22-rdf-syntax-ns#"
   xmlns:svg="http://www.w3.org/2000/svg"
   xmlns="http://www.w3.org/2000/svg"
   xmlns:sodipodi="http://sodipodi.sourceforge.net/DTD/sodipodi-0.dtd"
   xmlns:inkscape="http://www.inkscape.org/namespaces/inkscape"
   width="70.435608mm"
   height="70.435608mm"
   viewBox="0 0 70.435608 70.435608"
   version="1.1"
   id="svg8"
   inkscape:version="1.0.2 (e86c8708, 2021-01-15)"
   sodipodi:docname="QuestionMark.svg"
   inkscape:export-filename="/Users/ethanburkinshaw/Documents/Programming/Web/React/Website_react/src/assets/QuestionMark.png"
   inkscape:export-xdpi="150"
   inkscape:export-ydpi="150">
  <defs
     id="defs2">
    <filter
       style="color-interpolation-filters:sRGB"
       inkscape:label="Blur"
       id="filter1102">
      <feGaussianBlur
         stdDeviation="1.58052 2.63"
         result="blur"
         id="feGaussianBlur1100" />
    </filter>
  </defs>
  <sodipodi:namedview
     id="base"
     pagecolor="#ffffff"
     bordercolor="#666666"
     borderopacity="1.0"
     inkscape:pageopacity="0.0"
     inkscape:pageshadow="2"
     inkscape:zoom="2.2493605"
     inkscape:cx="130.41644"
     inkscape:cy="142.22596"
     inkscape:document-units="mm"
     inkscape:current-layer="layer1"
     showgrid="false"
     fit-margin-top="0"
     fit-margin-left="0"
     fit-margin-right="0"
     fit-margin-bottom="0"
     inkscape:window-width="1680"
     inkscape:window-height="924"
     inkscape:window-x="0"
     inkscape:window-y="25"
     inkscape:window-maximized="1"
     inkscape:document-rotation="0" />
  <metadata
     id="metadata5">
    <rdf:RDF>
      <cc:Work
         rdf:about="">
        <dc:format>image/svg+xml</dc:format>
        <dc:type
           rdf:resource="http://purl.org/dc/dcmitype/StillImage" />
        <dc:title />
      </cc:Work>
    </rdf:RDF>
  </metadata>
  <g
     inkscape:label="Layer 1"
     inkscape:groupmode="layer"
     id="layer1"
     transform="translate(-10.989783,-80.504073)">
    <circle
       style="opacity:1;fill:#f37c00;fill-opacity:1;stroke:#a81818;stroke-width:0.699;stroke-linejoin:round;stroke-miterlimit:4;stroke-dasharray:none;stroke-dashoffset:0;stroke-opacity:0"
       id="path821"
       cx="46.207588"
       cy="115.72188"
       r="34.868305" />
    <g
       aria-label="?"
       style="font-style:normal;font-variant:normal;font-weight:normal;font-stretch:normal;font-size:83.63690948px;line-height:1.25;font-family:sans-serif;-inkscape-font-specification:'sans-serif, Normal';font-variant-ligatures:normal;font-variant-caps:normal;font-variant-numeric:normal;font-feature-settings:normal;text-align:start;letter-spacing:0px;word-spacing:0px;writing-mode:lr-tb;text-anchor:start;fill:#000000;fill-opacity:1;stroke:none;stroke-width:4.48054886;filter:url(#filter1102)"
       id="text863">
      <path
         d="m 42.109379,123.5001 q 0,-4.26548 1.672739,-7.52732 1.756375,-3.26184 6.105495,-6.60731 3.010929,-2.42547 4.098209,-4.01458 1.087279,-1.67273 1.087279,-3.68002 0,-3.26184 -2.341833,-5.101852 -2.258197,-1.92365 -6.440043,-1.92365 -3.178203,0 -6.440042,1.505465 -3.26184,1.421828 -6.105495,3.847298 l -4.265483,-5.018215 q 3.596387,-3.345477 8.196418,-5.269126 4.60003,-2.007286 9.450971,-2.007286 4.516394,0 8.112781,1.589102 3.596388,1.505464 5.603674,4.516393 2.090923,3.010929 2.090923,7.192771 0,4.01458 -1.589102,6.85823 -1.505464,2.76002 -5.352762,5.4364 -2.592745,1.84001 -4.098209,3.59639 -1.505465,1.67274 -2.17456,3.68002 -0.585459,1.92365 -0.585459,4.5164 v 0.83637 l -7.025501,0.66909 z m 3.429114,20.24014 q -1.421828,0 -2.676381,-0.75273 -1.254554,-0.6691 -2.007286,-1.84002 -0.669096,-1.25455 -0.669096,-2.67638 0,-1.42182 0.669096,-2.59274 0.752732,-1.25456 2.007286,-1.92365 1.254553,-0.75273 2.676381,-0.75273 1.421828,0 2.676381,0.75273 1.254554,0.66909 1.923649,1.92365 0.752733,1.17092 0.752733,2.59274 0,1.42183 -0.752733,2.67638 -0.669095,1.17092 -1.923649,1.84002 -1.254553,0.75273 -2.676381,0.75273 z"
         style="font-style:normal;font-variant:normal;font-weight:normal;font-stretch:normal;font-size:83.63691711px;font-family:Dubai;-inkscape-font-specification:'Dubai, Normal';font-variant-ligatures:normal;font-variant-caps:normal;font-variant-numeric:normal;font-feature-settings:normal;text-align:start;writing-mode:lr-tb;text-anchor:start;fill:#000000;fill-opacity:1;stroke-width:4.48054886"
         id="path1051"
         inkscape:connector-curvature="0" />
    </g>
    <g
       aria-label="?"
       id="text825"
       style="font-style:normal;font-variant:normal;font-weight:normal;font-stretch:normal;font-size:83.6369px;line-height:1.25;font-family:sans-serif;-inkscape-font-specification:'sans-serif, Normal';font-variant-ligatures:normal;font-variant-caps:normal;font-variant-numeric:normal;font-feature-settings:normal;text-align:start;letter-spacing:0px;word-spacing:0px;writing-mode:lr-tb;text-anchor:start;fill:#ffffff;fill-opacity:1;stroke:none;stroke-width:4.48055"
       transform="matrix(0.87548647,0,0,0.85003159,2.926652,19.007421)">
      <path
         d="m 68.849997,96.389002 c 0,2.668105 -0.476447,5.050338 -1.429342,7.146708 -0.952895,2.06915 -2.20527,3.90687 -3.757127,5.51318 -1.524631,1.55185 -3.28068,3.00842 -5.268146,4.3697 -1.987466,1.36128 -4.097447,2.68172 -6.329942,3.96132 v 9.18862 h -7.310063 v -12.45569 c 1.769661,-1.00735 3.67545,-2.10998 5.717367,-3.3079 2.069143,-1.19793 3.757127,-2.40947 5.063954,-3.63462 1.579083,-1.41573 2.804233,-2.87229 3.675451,-4.3697 0.871218,-1.52463 1.306827,-3.457648 1.306827,-5.799043 0,-3.076488 -1.048184,-5.363435 -3.144552,-6.860841 -2.069143,-1.524631 -4.75086,-2.286947 -8.045153,-2.286947 -2.940361,0 -5.730981,0.462835 -8.37186,1.388504 -2.613653,0.925669 -4.682796,1.86495 -6.207427,2.817845 h -0.408383 v -8.331021 c 1.905789,-0.73509 4.315251,-1.388503 7.228386,-1.96024 2.94036,-0.598962 5.717367,-0.898443 8.331021,-0.898443 5.853495,0 10.468227,1.429342 13.844196,4.288025 3.403195,2.831458 5.104793,6.574972 5.104793,11.230543 z M 52.718853,142.90387 c -1.99733,1.99733 -6.333691,1.99733 -8.331021,0 -1.99733,-1.99733 -1.99733,-6.61956 0,-8.61689 1.99733,-1.99733 6.333691,-1.99733 8.331021,0 1.99733,1.99733 1.99733,6.61956 0,8.61689 z"
         style="font-style:normal;font-variant:normal;font-weight:normal;font-stretch:normal;font-size:83.6369px;font-family:Dubai;-inkscape-font-specification:'Dubai, Normal';font-variant-ligatures:normal;font-variant-caps:normal;font-variant-numeric:normal;font-feature-settings:normal;text-align:start;writing-mode:lr-tb;text-anchor:start;fill:#ffffff;fill-opacity:1;stroke-width:4.48055"
         id="path847"
         sodipodi:nodetypes="sccscccccccscscccccscszzzzz" />
    </g>
  </g>
</svg>
